<?xml version="1.0" encoding="UTF-8"?>
<svg xmlns="http://www.w3.org/2000/svg" viewBox="0 0 24 24">
  <circle cx="12" cy="12" r="12" fill="#25D366"/>
  <path d="M16.2 13.6c-.2-.1-1.2-.6-1.4-.7-.3-.1-.5-.1-.7.1-.2.2-.7.7-.8.8-.1.1-.3.1-.5 0-1-.5-1.8-1.2-2.4-2.2-.1-.2-.1-.3 0-.5.1-.1.6-.6.8-.8.2-.2.2-.4.1-.7 0-.1-.5-1.2-.7-1.4-.2-.5-.5-.4-.7-.4h-.6c-.2 0-.5.1-.6.3-.7.7-1 1.7-.9 2.7 0 .3.1.6.2.8.4 1 1.1 1.9 2 2.7.9.8 1.9 1.4 3 1.8.3.1.6.2.9.2.3 0 .6 0 .9-.1.9-.2 1.9-.9 2.2-1.8.1-.2.1-.5.1-.7v-.6c0-.2-.1-.5-.4-.7z" fill="#FFFFFF"/>
</svg>